<svg width="108" height="108" viewBox="0 0 108 108" fill="none" xmlns="http://www.w3.org/2000/svg">
<path opacity="0.63" d="M73.8943 10.7474C62.4644 3.21492 46.4022 4.73716 36.2977 15.9177C30.773 22.0329 28.529 30.4446 22.7944 36.4285C16.338 43.1736 8.62185 49.7218 5.69548 58.9078C2.5854 68.6711 5.31492 79.8647 12.27 87.3316C20.7341 96.4125 33.1745 93.683 44.9324 93.5386C93.0797 92.935 128.865 60.7974 83.3295 21.1799C79.5239 17.8468 77.6736 13.2276 73.8943 10.7474Z" fill="#FFBE55"/>
<path d="M95.4679 15.957H14.2383C12.611 15.957 11.2856 17.2693 11.2856 18.8965V74.8387H98.4205V18.8965C98.4205 17.2693 97.0951 15.957 95.4679 15.957Z" fill="#0E014C"/>
<path d="M95.3628 17.1909H14.3431C13.3327 17.1909 12.519 18.0045 12.519 19.015V74.0123H97.1868V19.015C97.1868 18.0045 96.3732 17.1909 95.3628 17.1909Z" fill="#0E538C"/>
<path d="M15.5635 21.2588H94.1423V72.0568H15.5635V21.2588Z" fill="#0E014C"/>
<path d="M55.2991 19.474C55.2991 19.7233 55.1022 19.9202 54.8529 19.9202C54.6036 19.9202 54.4067 19.7233 54.4067 19.474C54.4067 19.2247 54.6036 19.0278 54.8529 19.0278C55.1022 19.041 55.2991 19.2378 55.2991 19.474Z" fill="#F6F6F6"/>
<path d="M25.4189 24.0669H33.2926V25.4579H25.4189V24.0669Z" fill="#FFBE55"/>
<path d="M18.3062 24.0669H21.5475V25.4579H18.3062V24.0669ZM18.3062 26.6127H21.5475V28.0037H18.3062V26.6127ZM18.3062 29.6309H21.5475V31.0219H18.3062V29.6309ZM18.3062 32.636H21.5475V34.027H18.3062V32.636ZM18.3062 35.6543H21.5475V37.0453H18.3062V35.6543ZM18.3062 38.6594H21.5475V40.0504H18.3062V38.6594ZM34.9195 24.0669H61.3356V25.4579H34.9195V24.0669Z" fill="#CCE9FF"/>
<path d="M28.2007 26.6128H36.0743V28.0038H28.2007V26.6128Z" fill="#FFBE55"/>
<path d="M37.7017 26.6128H64.1177V28.0038H37.7017V26.6128Z" fill="#CCE9FF"/>
<path d="M32.8462 29.6313H40.7198V31.0224H32.8462V29.6313Z" fill="#FFBE55"/>
<path d="M42.3472 29.6313H68.7632V31.0224H42.3472V29.6313Z" fill="#CCE9FF"/>
<path d="M37.4785 32.6362H45.3521V34.0272H37.4785V32.6362Z" fill="#FFBE55"/>
<path d="M46.9795 32.6362H73.3955V34.0272H46.9795V32.6362Z" fill="#CCE9FF"/>
<path d="M32.8462 35.6543H40.7198V37.0453H32.8462V35.6543Z" fill="#FFBE55"/>
<path d="M42.3472 35.6543H82.6733V37.0453H42.3472V35.6543Z" fill="#CCE9FF"/>
<path d="M28.2007 38.6597H36.0743V40.0507H28.2007V38.6597Z" fill="#FFBE55"/>
<path d="M37.7017 38.6597H54.8531V40.0507H37.7017V38.6597Z" fill="#CCE9FF"/>
<path opacity="0.4" d="M25.4189 42.6094H33.2926V44.0004H25.4189V42.6094Z" fill="#FFBE55"/>
<path opacity="0.4" d="M18.3062 42.6094H21.5475V44.0004H18.3062V42.6094ZM18.3062 45.1552H21.5475V46.5462H18.3062V45.1552ZM18.3062 48.1734H21.5475V49.5644H18.3062V48.1734ZM18.3062 51.1785H21.5475V52.5695H18.3062V51.1785ZM18.3062 54.1967H21.5475V55.5877H18.3062V54.1967ZM18.3062 57.2018H21.5475V58.5928H18.3062V57.2018ZM34.9195 42.6094H61.3356V44.0004H34.9195V42.6094Z" fill="#CCE9FF"/>
<path opacity="0.4" d="M28.2007 45.1553H36.0743V46.5463H28.2007V45.1553Z" fill="#FFBE55"/>
<path opacity="0.4" d="M37.7017 45.1553H64.1177V46.5463H37.7017V45.1553Z" fill="#CCE9FF"/>
<path opacity="0.4" d="M32.8462 48.1733H40.7198V49.5643H32.8462V48.1733Z" fill="#FFBE55"/>
<path opacity="0.4" d="M42.3472 48.1733H68.7632V49.5643H42.3472V48.1733Z" fill="#CCE9FF"/>
<path opacity="0.4" d="M25.4189 61.1387H33.2926V62.5297H25.4189V61.1387Z" fill="#FFBE55"/>
<path opacity="0.4" d="M18.3062 61.1387H21.5475V62.5297H18.3062V61.1387ZM18.3062 63.6976H21.5475V65.0886H18.3062V63.6976ZM18.3062 66.7027H21.5475V68.0937H18.3062V66.7027ZM34.9195 61.1387H61.3356V62.5297H34.9195V61.1387Z" fill="#CCE9FF"/>
<path opacity="0.4" d="M28.2007 63.6978H36.0743V65.0888H28.2007V63.6978Z" fill="#FFBE55"/>
<path opacity="0.4" d="M37.7017 63.6978H64.1177V65.0888H37.7017V63.6978Z" fill="#CCE9FF"/>
<path opacity="0.4" d="M32.8462 66.7026H40.7198V68.0937H32.8462V66.7026Z" fill="#FFBE55"/>
<path opacity="0.4" d="M42.3472 66.7026H68.7632V68.0937H42.3472V66.7026Z" fill="#CCE9FF"/>
<path opacity="0.4" d="M37.4785 51.1787H45.3521V52.5697H37.4785V51.1787Z" fill="#FFBE55"/>
<path opacity="0.4" d="M46.9795 51.1787H87.3056V52.5697H46.9795V51.1787Z" fill="#CCE9FF"/>
<path opacity="0.4" d="M32.8462 54.1968H40.7198V55.5878H32.8462V54.1968Z" fill="#FFBE55"/>
<path opacity="0.4" d="M42.3472 54.1968H68.7632V55.5878H42.3472V54.1968Z" fill="#CCE9FF"/>
<path opacity="0.4" d="M28.2007 57.2021H36.0743V58.5932H28.2007V57.2021Z" fill="#FFBE55"/>
<path opacity="0.4" d="M37.7017 57.2021H64.1177V58.5932H37.7017V57.2021Z" fill="#CCE9FF"/>
<path d="M104.208 73.8418H5.49861C4.93433 73.8418 4.46191 74.3011 4.46191 74.8785V76.217C4.46191 76.7813 4.92121 77.2537 5.49861 77.2537H104.221C104.785 77.2537 105.258 76.7944 105.258 76.217V74.8785C105.244 74.3011 104.785 73.8418 104.208 73.8418Z" fill="#D3D3D3"/>
<path d="M63.317 75.3242H46.3887C46.1657 75.3242 45.9819 75.5079 45.9819 75.731C45.9819 75.9541 46.1657 76.1378 46.3887 76.1378H63.3302C63.5533 76.1378 63.737 75.9541 63.737 75.731C63.7239 75.5079 63.5401 75.3242 63.317 75.3242Z" fill="#F7F7F7"/>
<path d="M77.2406 88.5785L77.2274 90.6913C77.2274 90.6913 77.4899 92.0429 77.713 93.4864C77.9229 94.9299 78.0935 96.4653 77.8704 96.8196C77.4374 97.5282 76.5844 96.8196 76.4401 96.1109C76.2957 95.4023 76.0858 90.98 76.0858 90.98L75.9414 88.1323L77.2406 88.5785ZM79.3927 88.2898L79.0646 90.1926C79.0646 90.1926 78.4216 95.3892 78.7759 96.1766C79.1302 96.9639 80.2719 96.6096 80.2063 95.5335C80.1407 94.4706 80.4163 90.6913 80.4163 90.6913L81.0593 88.4079L79.3927 88.2898Z" fill="#0E014C"/>
<path d="M78.5132 65.128L78.3557 67.4639L84.3922 70.3771C85.4813 70.9677 86.0063 72.2406 85.6519 73.4216L81.4789 88.9458L79.4055 88.2897L81.2296 74.0121C81.3608 73.1329 80.7572 72.3193 79.878 72.175L77.7258 71.8338L75.4425 69.4979L78.0933 71.8731C78.7363 72.4505 79.0512 73.3035 78.9331 74.1565L77.2403 88.5784L75.3637 89.0508L74.5239 74.8651C74.4583 73.9596 73.8546 73.1985 73.0016 72.9229L69.2879 71.7419C68.6974 71.3876 68.33 70.7446 68.3037 70.0491L68.4612 65.0493L78.5132 65.128Z" fill="#0E014C"/>
<path d="M68.0674 70.364L69.0647 50.9686C69.0647 50.9686 73.1852 50.7192 74.4188 50.7192C75.088 50.7192 76.2297 51.0342 77.1352 51.3229C77.9882 51.5985 78.6837 51.5722 79.1036 52.3596L85.8618 65.3248L81.7019 65.7185L80.3109 64.1438L81.0195 63.0808L78.4868 57.1231L78.9855 67.9494L68.0674 70.364Z" fill="#FF9C34"/>
<path opacity="0.08" d="M78.5787 54.7612L83.0667 62.858L81.6757 64.4983C81.6757 64.4983 81.1114 64.6164 80.5734 64.4327L80.3241 64.144L81.0327 63.081L78.5 57.1233L78.5787 54.7612Z" fill="#0F0F0F"/>
<path d="M74.5895 56.5852C73.2248 56.5852 70.7314 53.0289 70.7314 51.6641C70.7314 51.3886 70.7839 51.1261 70.8627 50.8768C72.1356 50.8112 73.7234 50.7324 74.4189 50.7324C74.7207 50.7324 75.1144 50.798 75.5475 50.8899C75.6262 51.1392 75.6787 51.3886 75.6787 51.6641C75.6656 53.0289 75.9543 56.5852 74.5895 56.5852Z" fill="white"/>
<path opacity="0.08" d="M68.566 54.3281L68.0674 70.4822L74.7337 68.8812L68.566 54.3281Z" fill="#0F0F0F"/>
<path d="M74.8259 48.7378C74.7078 48.974 73.8942 52.1497 73.8942 52.1497C73.8942 52.1497 73.6055 52.6746 72.91 52.609C72.2145 52.5565 71.9258 51.5723 71.9258 51.5723L73.1462 47.583L74.8259 48.7378Z" fill="#FCD2B1"/>
<path d="M70.5479 46.7825C70.5479 48.974 72.8706 51.4017 75.0621 51.4017C77.2536 51.4017 78.474 48.974 78.474 46.7825C78.474 44.591 76.7024 42.8194 74.5109 42.8194C72.3194 42.8063 70.5479 44.591 70.5479 46.7825Z" fill="#FFBCC6"/>
<path d="M75.3188 51.5039C77.7509 51.1074 79.401 48.8144 79.0046 46.3824C78.6081 43.9503 76.3151 42.3002 73.8831 42.6967C71.451 43.0931 69.8009 45.3861 70.1974 47.8181C70.5938 50.2502 72.8868 51.9003 75.3188 51.5039Z" fill="#FFE3CA"/>
<path d="M73.7629 68.5008C73.9335 68.4483 75.4033 67.7266 76.44 67.7266C77.4767 67.7266 78.7496 68.8289 78.7496 68.8289C78.7496 68.8289 78.9202 69.4063 78.2247 69.2882C77.5292 69.1701 78.3165 69.7212 78.3165 69.7212C78.3165 69.7212 78.2772 69.7475 77.4636 69.8656C76.6499 69.9837 73.5005 69.8131 73.5005 69.8131L73.7629 68.5008Z" fill="#FFE3CA"/>
<path d="M69.0649 50.9819L68.5006 63.7372L73.7497 68.4876L73.5004 69.8262L66.1123 65.8762C65.4037 65.4957 64.9969 64.7083 65.1018 63.9078L66.4535 54.1445C66.5585 52.9241 67.3065 51.848 68.3956 51.31L69.0649 50.9819ZM73.2248 70.9154H86.5837V69.9311H73.2248C72.9492 69.9311 72.7393 70.1542 72.7393 70.4167C72.7261 70.6923 72.9492 70.9154 73.2248 70.9154Z" fill="#FF9C34"/>
<path d="M76.8862 70.9154H89.7727C90.337 70.9154 90.8357 70.5349 90.9932 69.9837L93.2634 61.4146C93.4734 60.6141 92.8697 59.8398 92.043 59.8398H80.7968C80.2325 59.8398 79.7339 60.2204 79.5764 60.7716L76.8862 70.9154Z" fill="#FFBE55"/>
<path opacity="0.22" d="M77 71.0756H89.8865C90.4508 71.0756 90.9495 70.695 91.1069 70.1439L93.3772 61.5747C93.5871 60.7742 92.9835 60 92.1567 60H80.9106C80.3463 60 79.8476 60.3806 79.6902 60.9317L77 71.0756Z" fill="white"/>
<path d="M84.4712 66.1387C84.3268 66.7029 84.6812 67.1491 85.2586 67.1491C85.836 67.1491 86.4134 66.6898 86.5577 66.1387C86.7021 65.5744 86.3477 65.1282 85.7703 65.1282C85.1929 65.1151 84.6155 65.5744 84.4712 66.1387Z" fill="white"/>
<path d="M74.6028 42.6357C76.8993 42.6357 78.7758 44.3679 79.0383 46.5857C78.264 47.1631 77.2536 47.4124 76.2956 47.2549C75.1671 47.0581 74.1566 46.2839 73.6842 45.2472C73.7236 45.7458 73.7498 46.2445 73.6711 46.73C73.5923 47.2156 73.3824 47.7011 72.9887 48.0161C72.9624 47.6749 72.9231 47.3074 72.7525 47.0056C72.5688 46.7038 72.1882 46.4938 71.8733 46.625C71.637 46.7169 71.4927 46.9531 71.4533 47.2025C71.414 47.4518 71.4796 47.7011 71.5714 47.9373C71.7158 48.3048 71.9257 48.6459 72.1882 48.9215C71.6633 49.0003 71.099 49.0659 70.5741 49.0134C70.2985 48.4229 70.1279 47.7798 70.1279 47.0843C70.1279 44.6304 72.1357 42.6357 74.6028 42.6357Z" fill="#2A94F4"/>
<path d="M70.7578 47.8321C70.7578 48.5801 71.3615 49.1837 72.1095 49.1837C72.8574 49.1837 73.4611 48.5801 73.4611 47.8321C73.4611 47.0841 72.8574 46.4805 72.1095 46.4805C71.3746 46.4805 70.7578 47.0841 70.7578 47.8321ZM79.3926 88.2895L79.1564 89.7198L80.5736 90.166L80.9673 88.7619L79.3926 88.2895ZM77.2273 90.166L76.0463 90.3891L75.9807 88.8931L77.2404 88.5782L77.2273 90.166Z" fill="#FFE3CA"/>
<path d="M72.1094 44.6958C73.211 44.6958 74.1041 43.8028 74.1041 42.7012C74.1041 41.5996 73.211 40.7065 72.1094 40.7065C71.0078 40.7065 70.1147 41.5996 70.1147 42.7012C70.1147 43.8028 71.0078 44.6958 72.1094 44.6958Z" fill="#2A94F4"/>
</svg>
