<svg width="234" height="132" viewBox="0 0 234 132" fill="none" xmlns="http://www.w3.org/2000/svg">
<path opacity="0.08" d="M110.48 132C133.176 132 151.576 130.172 151.576 127.918C151.576 125.663 133.176 123.835 110.48 123.835C87.7827 123.835 69.3833 125.663 69.3833 127.918C69.3833 130.172 87.7827 132 110.48 132Z" fill="#908F8D"/>
<path opacity="0.08" d="M81.778 124.874C81.5708 124.679 51.3945 82.402 76.4277 69.1409C110.492 51.0764 65.1299 -9.93689 128.017 1.39311C188.565 12.2953 115.537 60.4631 140.339 78.0631C156.609 89.6009 166.055 117.321 132.027 126.219C110.443 131.841 87.0308 129.8 81.778 124.874Z" fill="#908F8D"/>
<path d="M128.103 76.01L128.968 74.7999C129.2 74.3477 130.26 74.4211 130.601 74.7877C130.833 75.0444 130.638 75.7288 130.528 75.9611C130.26 76.5355 128.907 78.76 128.907 78.76C128.907 78.76 128.249 79.0533 127.676 78.3566C127.274 77.8922 127.92 76.2666 128.103 76.01Z" fill="#FCD2B1"/>
<path d="M130.345 92.6322C130.345 92.6322 129.931 89.7233 128.932 86.79C127.932 83.8567 128.907 78.5644 128.907 78.5644C128.907 78.5644 127.506 77.7456 127.286 78.1856C127.067 78.6256 125.458 85.7878 125.458 85.7878C125.458 85.7878 125.397 90.1267 126.348 91.4833C126.921 92.29 129.322 93.4633 130.345 92.6322Z" fill="#2A94F4"/>
<path d="M125.97 125.962C125.97 125.962 125.788 126.928 125.8 127.698C125.909 128.235 125.8 128.394 125.8 128.394L123.606 128.223C123.606 128.223 124.581 127.783 124.508 125.693C124.435 123.591 125.97 125.962 125.97 125.962Z" fill="#FCD2B1"/>
<path d="M125.824 127.857C125.824 127.857 124.873 128.187 123.923 127.942C122.814 128.419 122.034 128.602 121.022 128.724C120.01 128.847 120.193 129.604 121.912 129.507C123.63 129.397 124.837 129.47 125.227 129.507C125.605 129.543 126.226 129.592 126.25 129.335C126.287 129.091 126.141 127.771 125.824 127.857Z" fill="#0B4870"/>
<path d="M125.166 98.9877C125.166 98.9877 123.752 111.723 123.667 113.385C123.581 115.048 123.581 115.622 123.667 116.637C123.752 117.651 124.495 126.158 124.495 126.158L125.933 126.243C125.933 126.243 127.006 116.967 127.432 115.378C127.847 113.789 129.492 105.747 129.492 105.747L127.603 97.521L125.166 98.9877Z" fill="#0E538C"/>
<path d="M132.015 126.133C132.015 126.133 131.942 126.842 132.015 127.612C132.161 128.138 132.076 128.309 132.076 128.309L129.87 128.321C129.87 128.321 130.796 127.808 130.565 125.718C130.321 123.628 132.015 126.133 132.015 126.133Z" fill="#FCD2B1"/>
<path d="M131.954 127.857C131.954 127.857 131.004 128.187 130.053 127.942C128.944 128.419 128.164 128.602 127.152 128.724C126.141 128.847 126.324 129.604 128.042 129.507C129.761 129.397 130.967 129.47 131.357 129.507C131.735 129.543 132.356 129.592 132.381 129.335C132.405 129.091 132.271 127.771 131.954 127.857Z" fill="#0B4870"/>
<path d="M128.005 98.9877C128.005 98.9877 129.2 111.772 129.114 113.434C129.029 115.097 130.565 126.17 130.565 126.17L132.015 126.194C132.015 126.194 132.393 116.465 132.393 114.828C132.393 113.263 132.905 100.577 132.905 100.577L130.772 97.521L128.005 98.9877Z" fill="#0E538C"/>
<path d="M127.177 90.1265C127.177 90.1265 133.661 90.5787 134.075 92.0453C134.489 93.512 133.941 104.426 133.941 104.426C133.941 104.426 127.567 106.211 124.496 103.241C124.715 102.19 125.653 91.7765 127.177 90.1265Z" fill="#2A94F4"/>
<path d="M129.504 88.9776L128.895 91.2754C128.895 91.2754 129.102 92.3143 130.248 92.2165C131.393 92.1187 131.515 91.4465 131.515 91.4465L131.064 88.8432C131.077 88.8432 129.968 88.6476 129.504 88.9776Z" fill="#FCD2B1"/>
<path d="M128.785 85.3842C128.785 85.3842 127.347 87.5598 127.615 88.3175C127.883 89.0753 128.883 89.6987 131.101 89.7231C131.844 89.5398 132.454 87.2053 132.381 86.7287C131.942 83.6609 129.541 84.7853 128.785 85.3842Z" fill="#FFE3CA"/>
<path d="M128.395 85.5922C129.175 86.3255 129.59 86.1911 130.613 86.1544C131.235 86.13 131.491 86.6311 131.333 86.9488C131.174 87.2666 130.492 87.9266 130.991 87.9755C131.503 88.0244 131.467 87.2177 131.82 87.56C132.173 87.9144 131.406 88.8433 131.783 89.0388C132.161 89.2344 133.465 88.8311 133.148 87.9511C132.844 87.0711 135.586 84.6755 131.077 83.3311C129.919 82.9888 129.504 83.1111 129.127 83.0866C128.249 83.0255 128.286 85.4944 128.395 85.5922Z" fill="#0B4870"/>
<path opacity="0.2" d="M102.034 88.5743C102.034 80.5809 102.936 74.2865 104.739 69.6543C106.543 65.0343 109.456 61.0254 113.502 57.6276C117.536 54.2298 120.607 51.1254 122.704 48.3143C124.8 45.4909 125.86 42.3865 125.86 39.0009C125.86 30.7387 122.314 26.6076 115.221 26.6076C111.942 26.6076 109.297 27.8176 107.286 30.2132C105.263 32.6209 104.203 35.8721 104.093 39.9787H76.4155C76.5252 29.0398 79.9621 20.5209 86.7261 14.4098C93.4902 8.31094 101.29 4.85205 113.514 4.85205C125.677 4.85205 136.792 8.07872 143.483 13.7132C150.162 19.3476 153.514 27.3654 153.514 37.7543C153.514 42.3009 152.612 46.432 150.808 50.1476C149.004 53.8632 146.116 57.6765 142.131 61.5509L132.722 70.3387C130.053 72.9054 128.188 75.5454 127.152 78.2587C126.116 80.9721 125.543 84.4065 125.434 88.562H102.034V88.5743ZM98.6821 113.532C98.6821 109.487 102.448 102.899 105.373 100.295C105.373 100.295 109.2 99.2565 113.575 99.2565C117.938 99.2565 121.997 100.955 124.91 103.559C127.822 106.162 129.285 109.487 129.285 113.532C129.285 117.578 127.822 120.902 124.91 123.505C121.985 126.109 118.353 127.404 113.99 127.404C109.626 127.404 105.982 126.109 103.07 123.505C100.145 120.902 98.6821 117.578 98.6821 113.532Z" fill="#908F8D"/>
<path d="M98.3652 88.5742C98.3652 80.5809 99.2671 74.2865 101.071 69.6542C102.875 65.0342 105.787 61.0253 109.834 57.6276C113.868 54.2298 116.939 51.1253 119.035 48.3142C121.131 45.4909 122.192 42.3865 122.192 39.0009C122.192 30.7387 118.645 26.6076 111.552 26.6076C108.274 26.6076 105.629 27.8176 103.618 30.2131C101.595 32.6209 100.535 35.872 100.425 39.9787H72.7593C72.8568 29.052 76.2937 20.5331 83.0577 14.422C89.8218 8.32312 99.3158 5.27979 111.54 5.27979C123.703 5.27979 133.136 8.10312 139.815 13.7376C146.494 19.372 149.845 27.3898 149.845 37.7787C149.845 42.3253 148.943 46.4565 147.14 50.172C145.336 53.8876 142.447 57.7009 138.462 61.5753L129.053 70.3631C126.384 72.9298 124.52 75.5698 123.484 78.2831C122.448 80.9965 121.875 84.4309 121.765 88.5865H98.3652V88.5742ZM95.0015 113.532C95.0015 109.486 96.464 106.162 99.3768 103.559C102.29 100.955 105.934 99.6598 110.297 99.6598C114.66 99.6598 118.304 100.955 121.217 103.559C124.13 106.162 125.592 109.486 125.592 113.532C125.592 117.578 124.13 120.902 121.217 123.505C118.292 126.109 114.66 127.404 110.297 127.404C105.934 127.404 102.29 126.109 99.3768 123.505C96.464 120.902 95.0015 117.578 95.0015 113.532Z" fill="#908F8D"/>
<path d="M134.44 107.458C134.44 107.458 133.368 107.824 133.099 109.89C133.075 110.073 133.416 110.049 133.453 109.865L134.013 108.716C134.148 109.046 133.928 109.083 133.855 109.413L133.599 110.256C133.502 110.586 133.794 110.892 134.123 110.806C134.428 110.721 134.757 110.611 134.891 110.464C135.183 110.146 135.903 108.276 135.671 107.812C135.439 107.36 134.94 107.03 134.44 107.458Z" fill="#FCD2B1"/>
<path d="M132.173 91.7764C132.819 90.9942 134.062 91.0919 134.623 91.9475C135.598 93.4264 137.414 96.4575 137.402 98.3886C137.487 100.625 135.671 107.836 135.671 107.836C135.671 107.836 134.83 107.836 134.44 107.47C134.464 106.883 134.72 100.002 134.72 100.002C134.72 100.002 132.222 96.2986 131.673 94.5875C131.332 93.512 131.612 92.4608 132.173 91.7764Z" fill="#2A94F4"/>
<path d="M83.5939 82.7689C83.5939 82.7689 83.5329 80.6911 84.2642 79.8233C85.2148 78.6867 87.6157 78.5767 88.676 79.3467C89.8582 80.2022 90.6748 82.2189 90.0776 83.8445C91.8814 84.5534 93.8557 85.4456 93.1001 90.2611C91.5645 99.9656 79.4014 95.7978 82.1801 87.2178C82.8017 85.3356 83.5939 82.7689 83.5939 82.7689Z" fill="#0B4870"/>
<path d="M90.2119 123.591C90.2119 123.591 90.3825 124.495 90.3704 125.204C90.2729 125.705 90.3704 125.852 90.3704 125.852L92.4057 125.693C92.4057 125.693 91.5038 125.29 91.5647 123.334C91.6378 121.391 90.2119 123.591 90.2119 123.591Z" fill="#B97A59"/>
<path d="M90.3456 125.363C90.3456 125.363 91.2353 125.669 92.1128 125.436C93.1487 125.876 93.8678 126.048 94.8062 126.158C95.7447 126.268 95.574 126.976 93.9775 126.879C92.3809 126.781 91.2597 126.842 90.9062 126.879C90.5528 126.915 89.98 126.952 89.9556 126.72C89.9312 126.5 90.0531 125.29 90.3456 125.363ZM90.9672 98.5598C90.9672 98.5598 92.2834 110.391 92.3565 111.931C92.4297 113.471 92.4297 114.009 92.3565 114.95C92.2834 115.891 91.5765 123.786 91.5765 123.786L90.2359 123.86C90.2359 123.86 89.2365 115.243 88.8465 113.776C88.4565 112.298 86.9331 104.842 86.9331 104.842L88.6881 97.2031L90.9672 98.5598Z" fill="#0B4870"/>
<path d="M84.6053 123.762C84.6053 123.762 84.6784 124.422 84.6053 125.131C84.4712 125.62 84.5565 125.766 84.5565 125.766L86.604 125.779C86.604 125.779 85.7387 125.302 85.9581 123.359C86.1775 121.428 84.6053 123.762 84.6053 123.762Z" fill="#B97A59"/>
<path d="M84.6544 125.363C84.6544 125.363 85.5441 125.669 86.4216 125.436C87.4575 125.876 88.1766 126.048 89.115 126.158C90.0534 126.268 89.8828 126.976 88.2863 126.879C86.6897 126.781 85.5684 126.842 85.215 126.879C84.8616 126.915 84.2888 126.952 84.2644 126.72C84.24 126.5 84.3741 125.29 84.6544 125.363ZM88.3228 98.5598C88.3228 98.5598 87.2138 110.428 87.2869 111.968C87.36 113.508 85.9463 123.799 85.9463 123.799L84.6056 123.823C84.6056 123.823 84.2644 114.791 84.2644 113.263C84.2644 111.821 83.7891 100.026 83.7891 100.026L85.7756 97.1909L88.3228 98.5598Z" fill="#0B4870"/>
<path d="M92.5154 81.7666C92.5154 81.7666 91.6014 80.9844 91.4429 80.7155C90.992 80.0188 90.2607 79.8599 89.7854 79.8355C89.5417 79.8233 89.3467 80.0188 89.3467 80.2511C89.3467 80.3122 89.3832 80.3733 89.432 80.41L90.6264 80.9844C90.6873 81.0088 90.6873 81.0211 90.7361 81.0699L90.7848 81.1677C90.8701 81.2777 90.8579 81.3266 90.7117 81.3511L90.5532 81.3388C90.4801 81.3511 89.9317 81.1433 89.8707 81.1066C89.7732 81.0577 89.6514 81.1433 89.6636 81.2533C89.6636 81.3388 89.7123 81.4244 89.7976 81.4611L90.7239 82.0477L91.4795 82.3166C93.1614 83.6611 94.5873 84.6511 94.7579 85.0666C93.0029 86.3255 89.5782 87.8533 89.5782 87.8533L90.992 89.4544C90.992 89.4544 95.2942 87.1688 96.3057 86.3377C98.4386 84.2966 94.2461 82.5488 92.5154 81.7666Z" fill="#B97A59"/>
<path d="M89.7244 91.6543C89.5416 92.0821 90.931 98.0221 91.1625 99.391C91.1625 99.391 91.1381 99.391 91.0772 99.3787C90.4678 99.2932 86.7628 98.7921 83.7769 100.051L83.5088 91.6665L83.4966 91.361C83.4966 91.361 83.4966 91.0432 83.521 90.5543C83.5941 89.5521 83.7891 87.8776 84.435 86.7899C84.7641 86.2276 85.2028 85.8243 85.8 85.7754C87.6647 85.5921 89.1394 86.3987 89.8463 86.6187C91.0163 86.9854 91.711 86.7654 91.711 86.7654C91.711 86.7654 92.6372 89.0754 92.1741 89.491L90.2241 90.3099C90.2485 90.2854 89.9072 91.2143 89.7244 91.6543Z" fill="#908F8D"/>
<path d="M89.2366 80.4341C89.2366 80.4341 90.4188 83.1841 89.5291 84.4307C88.8588 85.3719 87.6888 85.3963 87.6888 85.3963V86.753C87.6888 86.753 87.5547 86.8752 87.3231 86.8874C86.9088 86.9119 85.8241 86.2519 85.8241 86.2519V80.923L89.2366 80.4341ZM83.3013 91.0674C83.3013 91.0674 84.2397 95.8463 84.6541 97.0563C84.8735 98.0219 91.016 98.303 91.406 98.3763C92.1494 99.0363 92.5638 99.0119 92.8075 99.0119C92.9903 99.0119 92.905 99.0485 93.88 99.1096C94.3188 99.1341 94.6113 98.6819 94.4041 98.2908C93.8922 97.7896 93.9288 97.973 93.2341 97.8263C92.4906 97.6796 92.3078 97.5941 92.4297 97.4596C93.1731 96.6285 92.5028 96.4574 91.7594 97.313C91.7106 97.3619 91.6253 97.3252 91.5522 97.3252C90.1263 96.983 86.7625 96.0296 86.2994 96.0174C85.7631 93.9885 85.6169 90.383 85.6169 90.383L83.3013 91.0674Z" fill="#B97A59"/>
<path d="M82.9358 91.8987C82.9358 91.8987 82.5336 87.9632 83.6914 87.0221C84.8492 86.081 86.1654 87.5965 86.1045 89.5887C86.0436 91.5687 86.0801 92.2898 86.0801 92.2898C86.0801 92.2898 84.3008 92.8887 82.9358 91.8987Z" fill="#908F8D"/>
<path d="M89.3464 80.1289C89.3464 80.1289 88.7371 83.6734 87.2624 83.0378C85.9218 82.4634 86.5921 83.0134 85.3611 84.1989C84.9955 84.5534 85.288 80.4467 85.288 80.4467L89.3464 80.1289Z" fill="#0B4870"/>
</svg>
