<svg width="23" height="23" viewBox="0 0 23 23" fill="none" xmlns="http://www.w3.org/2000/svg">
<path d="M11.5 1.9165C9.60459 1.9165 7.75175 2.47856 6.17578 3.53159C4.59981 4.58462 3.37149 6.08133 2.64615 7.83245C1.92081 9.58358 1.73103 11.5105 2.1008 13.3695C2.47058 15.2284 3.3833 16.936 4.72355 18.2763C6.06381 19.6165 7.77139 20.5293 9.63038 20.899C11.4894 21.2688 13.4163 21.079 15.1674 20.3537C16.9185 19.6283 18.4152 18.4 19.4682 16.8241C20.5213 15.2481 21.0833 13.3952 21.0833 11.4998C21.0833 10.2413 20.8354 8.99516 20.3538 7.83245C19.8722 6.66975 19.1663 5.61329 18.2764 4.7234C17.3865 3.8335 16.3301 3.1276 15.1674 2.64599C14.0047 2.16438 12.7585 1.9165 11.5 1.9165ZM11.5 19.1665C9.98367 19.1665 8.5014 18.7169 7.24062 17.8744C5.97985 17.032 4.99719 15.8346 4.41692 14.4337C3.83665 13.0328 3.68482 11.4913 3.98064 10.0041C4.27646 8.51696 5.00664 7.15089 6.07884 6.07869C7.15104 5.00648 8.51711 4.2763 10.0043 3.98048C11.4915 3.68466 13.033 3.83649 14.4339 4.41676C15.8348 4.99703 17.0322 5.97969 17.8746 7.24047C18.717 8.50124 19.1667 9.98351 19.1667 11.4998C19.1667 13.5332 18.3589 15.4832 16.9211 16.921C15.4834 18.3588 13.5333 19.1665 11.5 19.1665Z" fill="#0E014C" fill-opacity="0.85"/>
<path d="M13.4167 9.58317H15.3333C15.3333 8.22234 14.1258 7.12025 12.4583 6.804V5.74984C12.4583 5.49567 12.3574 5.25192 12.1776 5.07219C11.9979 4.89247 11.7542 4.7915 11.5 4.7915C11.2458 4.7915 11.0021 4.89247 10.8223 5.07219C10.6426 5.25192 10.5417 5.49567 10.5417 5.74984V6.804C8.87416 7.12025 7.66666 8.22234 7.66666 9.58317C7.66666 10.944 8.87416 12.0461 10.5417 12.3623V14.2311C9.93791 14.0298 9.58332 13.6848 9.58332 13.4165H7.66666C7.66666 14.7773 8.87416 15.8794 10.5417 16.1957V17.2498C10.5417 17.504 10.6426 17.7478 10.8223 17.9275C11.0021 18.1072 11.2458 18.2082 11.5 18.2082C11.7542 18.2082 11.9979 18.1072 12.1776 17.9275C12.3574 17.7478 12.4583 17.504 12.4583 17.2498V16.1957C14.1258 15.8794 15.3333 14.7773 15.3333 13.4165C15.3333 12.0557 14.1258 10.9536 12.4583 10.6373V8.76859C13.0621 8.96984 13.4167 9.31484 13.4167 9.58317ZM9.58332 9.58317C9.58332 9.31484 9.93791 8.96984 10.5417 8.76859V10.3978C9.93791 10.1965 9.58332 9.8515 9.58332 9.58317ZM13.4167 13.4165C13.4167 13.6848 13.0621 14.0298 12.4583 14.2311V12.6019C13.0621 12.8032 13.4167 13.1482 13.4167 13.4165Z" fill="#0E014C" fill-opacity="0.85"/>
</svg>
