<svg width="19" height="18" viewBox="0 0 19 18" fill="none" xmlns="http://www.w3.org/2000/svg">
<g clip-path="url(#clip0_2461_1434)">
<path d="M4.2108 10.8775L3.54944 13.2165L1.13217 13.2649C0.409762 11.9956 0 10.5432 0 8.99986C0 7.50744 0.383117 6.10006 1.06222 4.86084H1.06274L3.21479 5.23462L4.15751 7.26117C3.9602 7.80613 3.85266 8.39112 3.85266 8.99986C3.85273 9.66051 3.97905 10.2935 4.2108 10.8775Z" fill="#FBBB00"/>
<path d="M18.834 7.31885C18.9431 7.86328 19 8.42553 19 9.00016C19 9.6445 18.9285 10.273 18.7923 10.8793C18.3298 12.9424 17.1214 14.7438 15.4475 16.0187L15.4469 16.0182L12.7363 15.8872L12.3527 13.6184C13.4634 13.0012 14.3315 12.0354 14.7888 10.8793H9.70886V7.31885H18.834Z" fill="#518EF8"/>
<path d="M15.4469 16.0178L15.4474 16.0183C13.8194 17.258 11.7513 17.9998 9.50003 17.9998C5.8822 17.9998 2.73677 16.0841 1.1322 13.2649L4.21083 10.8774C5.0131 12.9059 7.07857 14.3499 9.50003 14.3499C10.5408 14.3499 11.5159 14.0833 12.3526 13.618L15.4469 16.0178Z" fill="#28B446"/>
<path d="M15.5639 2.07197L12.4863 4.45894C11.6203 3.94615 10.5967 3.64992 9.50004 3.64992C7.02377 3.64992 4.91966 5.16013 4.15759 7.26131L1.06278 4.86098H1.06226C2.64334 1.97307 5.82844 0 9.50004 0C11.8051 0 13.9186 0.777867 15.5639 2.07197Z" fill="#F14336"/>
</g>
<defs>
<clipPath id="clip0_2461_1434">
<rect width="19" height="18" fill="white"/>
</clipPath>
</defs>
</svg>
